<?xml version="1.0" standalone="no"?>
<!DOCTYPE svg PUBLIC "-//W3C//DTD SVG 20010904//EN"
 "http://www.w3.org/TR/2001/REC-SVG-20010904/DTD/svg10.dtd">
<svg version="1.0" xmlns="http://www.w3.org/2000/svg"
 width="512.000000pt" height="512.000000pt" viewBox="0 0 512.000000 512.000000"
 preserveAspectRatio="xMidYMid meet">
<metadata>
Created by potrace 1.14, written by Peter Selinger 2001-2017
</metadata>
<g transform="translate(0.000000,512.000000) scale(0.100000,-0.100000)"
fill="#000000" stroke="none">
<path d="M595 5080 c-16 -11 -38 -34 -47 -52 -17 -31 -18 -168 -18 -2466 0
-2699 -6 -2478 65 -2522 32 -20 45 -20 1960 -20 1915 0 1928 0 1960 20 71 44
65 -177 65 2520 0 2697 6 2476 -65 2520 -32 20 -45 20 -1961 20 -1904 0 -1929
0 -1959 -20z m3705 -2520 l0 -2270 -1745 0 -1745 0 0 2270 0 2270 1745 0 1745
0 0 -2270z"/>
<path d="M1011 4703 c-19 -10 -44 -31 -55 -46 l-21 -28 -3 -2057 c-2 -1943 -1
-2059 15 -2091 10 -19 31 -44 46 -55 l28 -21 1534 0 1534 0 28 21 c15 11 36
36 45 55 17 32 18 152 18 2079 0 1927 -1 2047 -18 2079 -9 19 -30 44 -45 55
-28 21 -29 21 -1550 24 -1434 2 -1524 1 -1556 -15z m2899 -2143 l0 -1880
-1355 0 -1355 0 0 1880 0 1880 1355 0 1355 0 0 -1880z"/>
<path d="M3535 4385 c-53 -18 -118 -91 -135 -149 -27 -96 22 -208 111 -254 92
-46 217 -22 275 54 138 180 -37 424 -251 349z m120 -175 c12 -13 15 -27 11
-44 -13 -51 -106 -43 -106 8 0 51 60 75 95 36z"/>
<path d="M1462 3710 c-88 -21 -130 -126 -79 -201 49 -74 -33 -69 1172 -69
1008 0 1082 1 1115 18 98 49 105 179 13 239 -26 17 -85 18 -1108 20 -594 0
-1095 -2 -1113 -7z"/>
<path d="M1422 3060 c-64 -39 -80 -144 -30 -197 52 -56 -11 -53 1162 -53 603
0 1095 4 1108 9 38 14 77 61 84 99 10 52 -14 111 -55 139 l-34 23 -1101 0
c-1087 0 -1101 0 -1134 -20z"/>
<path d="M1431 2432 c-40 -21 -71 -73 -71 -117 0 -44 31 -96 71 -117 32 -17
87 -18 1124 -18 1037 0 1092 1 1124 18 65 35 88 115 53 182 -40 75 41 70
-1177 70 -1037 0 -1092 -1 -1124 -18z"/>
<path d="M2405 1985 c-211 -58 -377 -229 -431 -445 -23 -92 -15 -231 19 -329
69 -195 235 -340 443 -387 288 -64 592 113 685 398 31 96 34 273 5 358 -68
201 -228 354 -422 404 -75 19 -229 20 -299 1z m262 -276 c72 -28 144 -94 180
-168 37 -75 39 -191 4 -262 -35 -74 -86 -125 -157 -160 -161 -80 -345 -15
-426 149 -63 128 -39 268 65 370 88 86 218 114 334 71z"/>
</g>
</svg>
